<mxfile host="" modified="2021-01-10T14:22:06.901Z" agent="5.0 (X11; Linux x86_64) AppleWebKit/537.36 (KHTML, like Gecko) Chrome/84.0.4147.105 Safari/537.36" etag="Gb7MPD8rsV2USLwmIVff" version="13.7.9" type="embed"><diagram id="prtHgNgQTEPvFCAcTncT" name="Page-1"><mxGraphModel dx="1713" dy="2002" grid="1" gridSize="10" guides="1" tooltips="1" connect="1" arrows="1" fold="1" page="0" pageScale="1" pageWidth="827" pageHeight="1169" math="0" shadow="0"><root><mxCell id="0"/><mxCell id="1" parent="0"/><mxCell id="L98sujV47VFuHQipVB1r-14" style="edgeStyle=orthogonalEdgeStyle;rounded=0;orthogonalLoop=1;jettySize=auto;html=1;entryX=0.5;entryY=0;entryDx=0;entryDy=0;" parent="1" source="L98sujV47VFuHQipVB1r-3" target="L98sujV47VFuHQipVB1r-13" edge="1"><mxGeometry relative="1" as="geometry"/></mxCell><mxCell id="L98sujV47VFuHQipVB1r-20" style="edgeStyle=orthogonalEdgeStyle;rounded=0;orthogonalLoop=1;jettySize=auto;html=1;exitX=0;exitY=0.5;exitDx=0;exitDy=0;entryX=1;entryY=0.5;entryDx=0;entryDy=0;" parent="1" source="L98sujV47VFuHQipVB1r-3" target="L98sujV47VFuHQipVB1r-16" edge="1"><mxGeometry relative="1" as="geometry"/></mxCell><mxCell id="L98sujV47VFuHQipVB1r-23" style="edgeStyle=orthogonalEdgeStyle;rounded=0;orthogonalLoop=1;jettySize=auto;html=1;exitX=0;exitY=0.75;exitDx=0;exitDy=0;entryX=1;entryY=0.75;entryDx=0;entryDy=0;" parent="1" source="L98sujV47VFuHQipVB1r-3" target="L98sujV47VFuHQipVB1r-16" edge="1"><mxGeometry relative="1" as="geometry"/></mxCell><mxCell id="L98sujV47VFuHQipVB1r-30" style="edgeStyle=orthogonalEdgeStyle;rounded=0;orthogonalLoop=1;jettySize=auto;html=1;exitX=1;exitY=0.25;exitDx=0;exitDy=0;entryX=0;entryY=0.25;entryDx=0;entryDy=0;" parent="1" source="L98sujV47VFuHQipVB1r-3" target="L98sujV47VFuHQipVB1r-27" edge="1"><mxGeometry relative="1" as="geometry"/></mxCell><mxCell id="L98sujV47VFuHQipVB1r-75" style="edgeStyle=orthogonalEdgeStyle;rounded=0;orthogonalLoop=1;jettySize=auto;html=1;exitX=0.75;exitY=1;exitDx=0;exitDy=0;entryX=0.75;entryY=0;entryDx=0;entryDy=0;" parent="1" source="L98sujV47VFuHQipVB1r-3" target="L98sujV47VFuHQipVB1r-13" edge="1"><mxGeometry relative="1" as="geometry"/></mxCell><mxCell id="L98sujV47VFuHQipVB1r-98" style="edgeStyle=orthogonalEdgeStyle;rounded=0;orthogonalLoop=1;jettySize=auto;html=1;exitX=0.75;exitY=0;exitDx=0;exitDy=0;entryX=0.75;entryY=1;entryDx=0;entryDy=0;" parent="1" source="L98sujV47VFuHQipVB1r-3" target="L98sujV47VFuHQipVB1r-10" edge="1"><mxGeometry relative="1" as="geometry"/></mxCell><mxCell id="L98sujV47VFuHQipVB1r-3" value="TradingAlgo" style="swimlane;rounded=0;shadow=0;sketch=0;glass=0;swimlaneLine=1;" parent="1" vertex="1"><mxGeometry x="1080" y="400" width="240" height="240" as="geometry"><mxRectangle x="1080" y="400" width="100" height="23" as="alternateBounds"/></mxGeometry></mxCell><mxCell id="L98sujV47VFuHQipVB1r-11" style="edgeStyle=orthogonalEdgeStyle;rounded=0;orthogonalLoop=1;jettySize=auto;html=1;" parent="1" source="L98sujV47VFuHQipVB1r-10" target="L98sujV47VFuHQipVB1r-3" edge="1"><mxGeometry relative="1" as="geometry"/></mxCell><mxCell id="L98sujV47VFuHQipVB1r-81" style="edgeStyle=orthogonalEdgeStyle;rounded=0;orthogonalLoop=1;jettySize=auto;html=1;entryX=1;entryY=0.5;entryDx=0;entryDy=0;" parent="1" source="L98sujV47VFuHQipVB1r-10" target="L98sujV47VFuHQipVB1r-80" edge="1"><mxGeometry relative="1" as="geometry"/></mxCell><mxCell id="LUssbgTBf7OsaTmx9kJw-4" style="edgeStyle=orthogonalEdgeStyle;rounded=0;orthogonalLoop=1;jettySize=auto;html=1;exitX=0.5;exitY=0;exitDx=0;exitDy=0;entryX=1;entryY=0.5;entryDx=0;entryDy=0;" parent="1" source="L98sujV47VFuHQipVB1r-10" target="LUssbgTBf7OsaTmx9kJw-1" edge="1"><mxGeometry relative="1" as="geometry"/></mxCell><mxCell id="L98sujV47VFuHQipVB1r-10" value="Engine" style="swimlane;rounded=0;shadow=0;sketch=0;glass=0;swimlaneLine=1;" parent="1" vertex="1"><mxGeometry x="1080" width="240" height="240" as="geometry"><mxRectangle x="1080" y="400" width="100" height="23" as="alternateBounds"/></mxGeometry></mxCell><mxCell id="L98sujV47VFuHQipVB1r-22" style="edgeStyle=orthogonalEdgeStyle;rounded=0;orthogonalLoop=1;jettySize=auto;html=1;exitX=0.25;exitY=0;exitDx=0;exitDy=0;entryX=0.25;entryY=1;entryDx=0;entryDy=0;" parent="1" source="L98sujV47VFuHQipVB1r-13" target="L98sujV47VFuHQipVB1r-3" edge="1"><mxGeometry relative="1" as="geometry"/></mxCell><mxCell id="L98sujV47VFuHQipVB1r-13" value="ChildClass" style="swimlane;rounded=0;shadow=0;sketch=0;glass=0;swimlaneLine=1;" parent="1" vertex="1"><mxGeometry x="1080" y="760" width="240" height="240" as="geometry"><mxRectangle x="1080" y="400" width="100" height="23" as="alternateBounds"/></mxGeometry></mxCell><mxCell id="L98sujV47VFuHQipVB1r-29" style="edgeStyle=orthogonalEdgeStyle;rounded=0;orthogonalLoop=1;jettySize=auto;html=1;exitX=1;exitY=0.25;exitDx=0;exitDy=0;entryX=0;entryY=0.25;entryDx=0;entryDy=0;" parent="1" source="L98sujV47VFuHQipVB1r-16" target="L98sujV47VFuHQipVB1r-3" edge="1"><mxGeometry relative="1" as="geometry"/></mxCell><mxCell id="L98sujV47VFuHQipVB1r-40" style="edgeStyle=orthogonalEdgeStyle;rounded=0;orthogonalLoop=1;jettySize=auto;html=1;exitX=0;exitY=0.75;exitDx=0;exitDy=0;entryX=1;entryY=0.75;entryDx=0;entryDy=0;" parent="1" source="L98sujV47VFuHQipVB1r-16" target="L98sujV47VFuHQipVB1r-35" edge="1"><mxGeometry relative="1" as="geometry"/></mxCell><mxCell id="L98sujV47VFuHQipVB1r-86" style="edgeStyle=orthogonalEdgeStyle;rounded=0;orthogonalLoop=1;jettySize=auto;html=1;exitX=0;exitY=0.5;exitDx=0;exitDy=0;entryX=1;entryY=0.5;entryDx=0;entryDy=0;" parent="1" source="L98sujV47VFuHQipVB1r-16" target="L98sujV47VFuHQipVB1r-35" edge="1"><mxGeometry relative="1" as="geometry"/></mxCell><mxCell id="L98sujV47VFuHQipVB1r-16" value="Broker" style="swimlane;rounded=0;shadow=0;sketch=0;glass=0;swimlaneLine=1;" parent="1" vertex="1"><mxGeometry x="720" y="400" width="240" height="240" as="geometry"><mxRectangle x="1080" y="400" width="100" height="23" as="alternateBounds"/></mxGeometry></mxCell><mxCell id="L98sujV47VFuHQipVB1r-85" value="&lt;font style=&quot;font-size: 14px&quot;&gt;config reader/&lt;br&gt;loader&lt;/font&gt;" style="rounded=0;whiteSpace=wrap;html=1;shadow=0;glass=0;comic=0;sketch=0;fillColor=none;align=center;verticalAlign=middle;" parent="L98sujV47VFuHQipVB1r-16" vertex="1"><mxGeometry x="20" y="40" width="120" height="90" as="geometry"/></mxCell><mxCell id="L98sujV47VFuHQipVB1r-94" value="&lt;span style=&quot;font-size: 14px&quot;&gt;order_history&lt;/span&gt;" style="text;html=1;align=center;verticalAlign=middle;resizable=0;points=[];autosize=1;" parent="L98sujV47VFuHQipVB1r-16" vertex="1"><mxGeometry x="20" y="150" width="100" height="20" as="geometry"/></mxCell><mxCell id="L98sujV47VFuHQipVB1r-19" value="&lt;span style=&quot;font-size: 14px&quot;&gt;on_data()&lt;/span&gt;" style="text;html=1;strokeColor=none;fillColor=none;align=center;verticalAlign=middle;whiteSpace=wrap;rounded=0;shadow=0;glass=0;sketch=0;rotation=-90;" parent="1" vertex="1"><mxGeometry x="1190" y="690" width="40" height="20" as="geometry"/></mxCell><mxCell id="L98sujV47VFuHQipVB1r-21" value="&lt;span style=&quot;font-size: 14px&quot;&gt;on_data()&lt;/span&gt;" style="text;html=1;strokeColor=none;fillColor=none;align=center;verticalAlign=middle;whiteSpace=wrap;rounded=0;shadow=0;glass=0;sketch=0;" parent="1" vertex="1"><mxGeometry x="1000" y="520" width="40" height="20" as="geometry"/></mxCell><mxCell id="L98sujV47VFuHQipVB1r-101" style="edgeStyle=orthogonalEdgeStyle;rounded=0;orthogonalLoop=1;jettySize=auto;html=1;entryX=0.75;entryY=1;entryDx=0;entryDy=0;" parent="1" source="L98sujV47VFuHQipVB1r-24" target="L98sujV47VFuHQipVB1r-16" edge="1"><mxGeometry relative="1" as="geometry"/></mxCell><mxCell id="L98sujV47VFuHQipVB1r-24" value="&lt;span style=&quot;font-size: 14px&quot;&gt;orders&lt;/span&gt;" style="text;html=1;strokeColor=none;fillColor=none;align=center;verticalAlign=middle;whiteSpace=wrap;rounded=0;shadow=0;glass=0;sketch=0;rotation=-90;" parent="1" vertex="1"><mxGeometry x="1130" y="690" width="40" height="20" as="geometry"/></mxCell><mxCell id="L98sujV47VFuHQipVB1r-25" value="&lt;span style=&quot;font-size: 14px&quot;&gt;orders&lt;/span&gt;" style="text;html=1;strokeColor=none;fillColor=none;align=center;verticalAlign=middle;whiteSpace=wrap;rounded=0;shadow=0;glass=0;sketch=0;" parent="1" vertex="1"><mxGeometry x="1000" y="580" width="40" height="20" as="geometry"/></mxCell><mxCell id="L98sujV47VFuHQipVB1r-27" value="Portfolio" style="swimlane;rounded=0;shadow=0;sketch=0;glass=0;swimlaneLine=1;" parent="1" vertex="1"><mxGeometry x="1440" y="400" width="240" height="240" as="geometry"><mxRectangle x="1080" y="400" width="100" height="23" as="alternateBounds"/></mxGeometry></mxCell><mxCell id="L98sujV47VFuHQipVB1r-31" value="&lt;span style=&quot;font-size: 14px&quot;&gt;order_info()&lt;/span&gt;" style="text;html=1;strokeColor=none;fillColor=none;align=center;verticalAlign=middle;whiteSpace=wrap;rounded=0;shadow=0;glass=0;sketch=0;" parent="1" vertex="1"><mxGeometry x="980" y="460" width="80" height="20" as="geometry"/></mxCell><mxCell id="L98sujV47VFuHQipVB1r-38" style="edgeStyle=orthogonalEdgeStyle;rounded=0;orthogonalLoop=1;jettySize=auto;html=1;exitX=1;exitY=0.25;exitDx=0;exitDy=0;entryX=0;entryY=0.25;entryDx=0;entryDy=0;" parent="1" source="L98sujV47VFuHQipVB1r-35" target="L98sujV47VFuHQipVB1r-16" edge="1"><mxGeometry relative="1" as="geometry"/></mxCell><mxCell id="L98sujV47VFuHQipVB1r-43" style="edgeStyle=orthogonalEdgeStyle;rounded=0;orthogonalLoop=1;jettySize=auto;html=1;exitX=0;exitY=0.5;exitDx=0;exitDy=0;entryX=0.875;entryY=0.5;entryDx=0;entryDy=0;entryPerimeter=0;" parent="1" source="L98sujV47VFuHQipVB1r-35" target="L98sujV47VFuHQipVB1r-42" edge="1"><mxGeometry relative="1" as="geometry"/></mxCell><mxCell id="L98sujV47VFuHQipVB1r-35" value="BrokerAPI" style="swimlane;rounded=0;shadow=0;sketch=0;glass=0;swimlaneLine=1;" parent="1" vertex="1"><mxGeometry x="360" y="400" width="240" height="240" as="geometry"><mxRectangle x="360" y="400" width="100" height="23" as="alternateBounds"/></mxGeometry></mxCell><mxCell id="L98sujV47VFuHQipVB1r-61" value="&lt;font style=&quot;font-size: 14px&quot;&gt;- TD Ameritrade&lt;br&gt;- Alphavantage&lt;br&gt;- Binance&lt;br&gt;-...&lt;/font&gt;" style="rounded=0;whiteSpace=wrap;html=1;shadow=0;glass=0;comic=0;sketch=0;fillColor=none;align=left;verticalAlign=top;" parent="L98sujV47VFuHQipVB1r-35" vertex="1"><mxGeometry x="20" y="40" width="120" height="90" as="geometry"/></mxCell><mxCell id="L98sujV47VFuHQipVB1r-84" value="&lt;span style=&quot;font-size: 14px&quot;&gt;Backtest&lt;/span&gt;" style="rounded=0;whiteSpace=wrap;html=1;shadow=0;glass=0;comic=0;sketch=0;fillColor=none;align=center;verticalAlign=middle;" parent="L98sujV47VFuHQipVB1r-35" vertex="1"><mxGeometry x="20" y="140" width="120" height="90" as="geometry"/></mxCell><mxCell id="L98sujV47VFuHQipVB1r-39" value="&lt;span style=&quot;font-size: 14px&quot;&gt;updates&lt;/span&gt;" style="text;html=1;strokeColor=none;fillColor=none;align=center;verticalAlign=middle;whiteSpace=wrap;rounded=0;shadow=0;glass=0;sketch=0;" parent="1" vertex="1"><mxGeometry x="640" y="460" width="40" height="20" as="geometry"/></mxCell><mxCell id="L98sujV47VFuHQipVB1r-41" value="&lt;span style=&quot;font-size: 14px&quot;&gt;orders&lt;/span&gt;" style="text;html=1;strokeColor=none;fillColor=none;align=center;verticalAlign=middle;whiteSpace=wrap;rounded=0;shadow=0;glass=0;sketch=0;" parent="1" vertex="1"><mxGeometry x="640" y="580" width="40" height="20" as="geometry"/></mxCell><mxCell id="L98sujV47VFuHQipVB1r-42" value="Exchange" style="ellipse;shape=cloud;whiteSpace=wrap;html=1;rounded=0;shadow=0;glass=0;sketch=0;fontSize=16;" parent="1" vertex="1"><mxGeometry x="110" y="455" width="190" height="130" as="geometry"/></mxCell><mxCell id="L98sujV47VFuHQipVB1r-73" value="" style="endArrow=none;dashed=1;html=1;dashPattern=1 3;strokeWidth=2;entryX=0.5;entryY=0;entryDx=0;entryDy=0;exitX=1;exitY=0.5;exitDx=0;exitDy=0;" parent="1" source="L98sujV47VFuHQipVB1r-10" target="L98sujV47VFuHQipVB1r-27" edge="1"><mxGeometry width="50" height="50" relative="1" as="geometry"><mxPoint x="1250" y="270" as="sourcePoint"/><mxPoint x="1400" y="290" as="targetPoint"/><Array as="points"><mxPoint x="1560" y="120"/></Array></mxGeometry></mxCell><mxCell id="L98sujV47VFuHQipVB1r-74" value="&lt;font style=&quot;font-size: 14px&quot;&gt;subscribed_symbols&lt;/font&gt;" style="text;html=1;strokeColor=none;fillColor=none;align=center;verticalAlign=middle;whiteSpace=wrap;rounded=0;shadow=0;glass=0;comic=0;sketch=0;" parent="1" vertex="1"><mxGeometry x="1360" y="120" width="160" height="20" as="geometry"/></mxCell><mxCell id="L98sujV47VFuHQipVB1r-76" value="&lt;span style=&quot;font-size: 14px&quot;&gt;order_info()&lt;/span&gt;" style="text;html=1;strokeColor=none;fillColor=none;align=center;verticalAlign=middle;whiteSpace=wrap;rounded=0;shadow=0;glass=0;sketch=0;rotation=-90;" parent="1" vertex="1"><mxGeometry x="1230" y="690" width="80" height="20" as="geometry"/></mxCell><mxCell id="L98sujV47VFuHQipVB1r-78" value="&lt;span style=&quot;font-size: 14px&quot;&gt;order_info()&lt;/span&gt;" style="text;html=1;strokeColor=none;fillColor=none;align=center;verticalAlign=middle;whiteSpace=wrap;rounded=0;shadow=0;glass=0;sketch=0;" parent="1" vertex="1"><mxGeometry x="1340" y="460" width="80" height="20" as="geometry"/></mxCell><mxCell id="L98sujV47VFuHQipVB1r-79" value="&lt;span style=&quot;font-size: 14px&quot;&gt;on_data()&lt;/span&gt;" style="text;html=1;strokeColor=none;fillColor=none;align=center;verticalAlign=middle;whiteSpace=wrap;rounded=0;shadow=0;glass=0;sketch=0;rotation=-90;" parent="1" vertex="1"><mxGeometry x="1175" y="315" width="70" height="20" as="geometry"/></mxCell><mxCell id="L98sujV47VFuHQipVB1r-91" style="edgeStyle=orthogonalEdgeStyle;rounded=0;orthogonalLoop=1;jettySize=auto;html=1;exitX=0;exitY=0.5;exitDx=0;exitDy=0;entryX=1;entryY=0.5;entryDx=0;entryDy=0;" parent="1" source="L98sujV47VFuHQipVB1r-80" target="L98sujV47VFuHQipVB1r-89" edge="1"><mxGeometry relative="1" as="geometry"/></mxCell><mxCell id="LUssbgTBf7OsaTmx9kJw-3" style="edgeStyle=orthogonalEdgeStyle;rounded=0;orthogonalLoop=1;jettySize=auto;html=1;exitX=0.5;exitY=0;exitDx=0;exitDy=0;entryX=0.5;entryY=1;entryDx=0;entryDy=0;" parent="1" source="L98sujV47VFuHQipVB1r-80" target="LUssbgTBf7OsaTmx9kJw-1" edge="1"><mxGeometry relative="1" as="geometry"/></mxCell><mxCell id="L98sujV47VFuHQipVB1r-80" value="DataProvider" style="swimlane;rounded=0;shadow=0;sketch=0;glass=0;swimlaneLine=1;" parent="1" vertex="1"><mxGeometry x="720" width="240" height="240" as="geometry"><mxRectangle x="1080" y="400" width="100" height="23" as="alternateBounds"/></mxGeometry></mxCell><mxCell id="L98sujV47VFuHQipVB1r-92" value="&lt;font style=&quot;font-size: 14px&quot;&gt;config reader/&lt;br&gt;loader&lt;/font&gt;" style="rounded=0;whiteSpace=wrap;html=1;shadow=0;glass=0;comic=0;sketch=0;fillColor=none;align=center;verticalAlign=middle;" parent="L98sujV47VFuHQipVB1r-80" vertex="1"><mxGeometry x="60" y="75" width="120" height="90" as="geometry"/></mxCell><mxCell id="L98sujV47VFuHQipVB1r-83" value="&lt;span style=&quot;font-size: 14px&quot;&gt;data request&lt;/span&gt;" style="text;html=1;strokeColor=none;fillColor=none;align=center;verticalAlign=middle;whiteSpace=wrap;rounded=0;shadow=0;glass=0;sketch=0;" parent="1" vertex="1"><mxGeometry x="970" y="120" width="100" height="20" as="geometry"/></mxCell><mxCell id="L98sujV47VFuHQipVB1r-87" value="&lt;span style=&quot;font-size: 14px&quot;&gt;on_data()&lt;/span&gt;" style="text;html=1;strokeColor=none;fillColor=none;align=center;verticalAlign=middle;whiteSpace=wrap;rounded=0;shadow=0;glass=0;sketch=0;" parent="1" vertex="1"><mxGeometry x="640" y="520" width="40" height="20" as="geometry"/></mxCell><mxCell id="L98sujV47VFuHQipVB1r-88" value="Data Provider" style="ellipse;shape=cloud;whiteSpace=wrap;html=1;rounded=0;shadow=0;glass=0;sketch=0;fontSize=16;" parent="1" vertex="1"><mxGeometry x="100" y="55" width="190" height="130" as="geometry"/></mxCell><mxCell id="L98sujV47VFuHQipVB1r-90" style="edgeStyle=orthogonalEdgeStyle;rounded=0;orthogonalLoop=1;jettySize=auto;html=1;entryX=0.875;entryY=0.5;entryDx=0;entryDy=0;entryPerimeter=0;" parent="1" source="L98sujV47VFuHQipVB1r-89" target="L98sujV47VFuHQipVB1r-88" edge="1"><mxGeometry relative="1" as="geometry"/></mxCell><mxCell id="L98sujV47VFuHQipVB1r-89" value="DataAPI" style="swimlane;rounded=0;shadow=0;sketch=0;glass=0;swimlaneLine=1;" parent="1" vertex="1"><mxGeometry x="360" width="240" height="240" as="geometry"><mxRectangle x="1080" y="400" width="100" height="23" as="alternateBounds"/></mxGeometry></mxCell><mxCell id="L98sujV47VFuHQipVB1r-93" value="&lt;font style=&quot;font-size: 14px&quot;&gt;- TD Ameritrade&lt;br&gt;- Alphavantage&lt;br&gt;- Binance&lt;br&gt;-...&lt;/font&gt;" style="rounded=0;whiteSpace=wrap;html=1;shadow=0;glass=0;comic=0;sketch=0;fillColor=none;align=left;verticalAlign=top;" parent="L98sujV47VFuHQipVB1r-89" vertex="1"><mxGeometry x="60" y="75" width="120" height="90" as="geometry"/></mxCell><mxCell id="L98sujV47VFuHQipVB1r-99" value="&lt;span style=&quot;font-size: 14px&quot;&gt;result data&lt;/span&gt;" style="text;html=1;strokeColor=none;fillColor=none;align=center;verticalAlign=middle;whiteSpace=wrap;rounded=0;shadow=0;glass=0;sketch=0;rotation=-90;" parent="1" vertex="1"><mxGeometry x="1205" y="320" width="130" height="20" as="geometry"/></mxCell><mxCell id="LUssbgTBf7OsaTmx9kJw-8" style="edgeStyle=orthogonalEdgeStyle;rounded=0;orthogonalLoop=1;jettySize=auto;html=1;exitX=0.5;exitY=0;exitDx=0;exitDy=0;" parent="1" source="LUssbgTBf7OsaTmx9kJw-1" edge="1"><mxGeometry relative="1" as="geometry"><mxPoint x="840" y="-440" as="targetPoint"/></mxGeometry></mxCell><mxCell id="LUssbgTBf7OsaTmx9kJw-1" value="Visulaizer" style="swimlane;rounded=0;shadow=0;sketch=0;glass=0;swimlaneLine=1;" parent="1" vertex="1"><mxGeometry x="720" y="-360" width="240" height="240" as="geometry"><mxRectangle x="1080" y="400" width="100" height="23" as="alternateBounds"/></mxGeometry></mxCell><mxCell id="LUssbgTBf7OsaTmx9kJw-5" value="WebServer" style="ellipse;shape=cloud;whiteSpace=wrap;html=1;rounded=0;shadow=0;glass=0;sketch=0;fontSize=16;" parent="1" vertex="1"><mxGeometry x="745" y="-560" width="190" height="130" as="geometry"/></mxCell><mxCell id="LUssbgTBf7OsaTmx9kJw-9" value="&lt;span style=&quot;font-size: 14px&quot;&gt;result data&lt;/span&gt;" style="text;html=1;strokeColor=none;fillColor=none;align=center;verticalAlign=middle;whiteSpace=wrap;rounded=0;shadow=0;glass=0;sketch=0;rotation=0;" parent="1" vertex="1"><mxGeometry x="1070" y="-240" width="130" height="20" as="geometry"/></mxCell></root></mxGraphModel></diagram></mxfile>